<svg width="168.000000" height="15.000000" viewBox="0 0 168 15" fill="none" xmlns="http://www.w3.org/2000/svg" xmlns:xlink="http://www.w3.org/1999/xlink">
	<desc>
			Created with Pixso.
	</desc>
	<defs/>
	<path id="Green.Harvest" d="M7.25 15C2.89 15 0 12.06 0 7.47C0 3 2.85 0 7.14 0C10.76 0 13.3 2.06 13.67 5.16L10.67 5.16C10.39 3.38 9 2.38 7.14 2.38C4.54 2.38 2.99 4.42 2.99 7.47C2.99 10.84 4.73 12.62 7.25 12.62C9.43 12.62 10.84 11.42 10.98 9.62L10.98 9.42L6.96 9.42L6.96 7.18L13.77 7.18L13.77 9.02C13.65 12.6 11.05 15 7.25 15ZM149.94 15C146.1 15 143.79 12.98 143.79 9.97L147.09 9.97C147.09 10 147.09 10.03 147.09 10.06C147.09 11.71 148.24 12.62 149.94 12.62C151.78 12.62 152.65 11.92 152.65 10.88C152.65 9.83 151.9 9.4 149.26 8.69C146.84 8.06 144.2 7.3 144.2 4.3C144.2 1.92 146.35 0 149.74 0C153.23 0 155.46 1.9 155.46 4.57L152.25 4.57C152.24 3.16 151.24 2.38 149.74 2.38C148.27 2.38 147.3 3.09 147.3 4.06C147.3 5.19 148.1 5.56 150.21 6.14C153.33 6.97 155.85 7.31 155.85 10.58C155.85 13.2 153.39 15 149.94 15ZM15.58 14.8L15.58 0.19L22.83 0.19C26.53 0.19 27.99 1.93 27.99 4.45C27.99 6.71 26.34 7.8 24.42 8.06L24.42 8.12C25.66 8.42 26.22 9.07 26.73 10.38C27.39 12.02 27.5 13.98 28.34 14.68L28.34 14.8L25.04 14.8C24.34 14.12 24.17 11.98 23.8 10.68C23.43 9.33 22.62 9.18 21.11 9.18L18.47 9.18L18.47 14.8L15.58 14.8ZM29.91 14.8L29.91 0.19L40.22 0.19L40.22 2.52L32.81 2.52L32.81 6L39.5 6L39.5 8.31L32.81 8.31L32.81 12.42L40.32 12.42L40.32 14.8L29.91 14.8ZM42.33 14.8L42.33 0.19L52.64 0.19L52.64 2.52L45.23 2.52L45.23 6L51.92 6L51.92 8.31L45.23 8.31L45.23 12.42L52.74 12.42L52.74 14.8L42.33 14.8ZM54.75 14.8L54.75 0.19L58.26 0.19L63.26 8.26C64.79 10.7 64.98 11.5 64.98 11.5L65.04 11.5L65 0.19L67.89 0.19L67.89 14.8L64.36 14.8L59.17 6.5C58 4.62 57.68 3.47 57.68 3.47L57.64 3.47L57.64 14.8L54.75 14.8ZM75.25 14.8L75.25 0.19L78.14 0.19L78.14 6.04L85.06 6.04L85.06 0.19L87.96 0.19L87.96 14.8L85.06 14.8L85.06 8.35L78.14 8.35L78.14 14.8L75.25 14.8ZM89.19 14.8L94.98 0.19L98.12 0.19L103.98 14.8L100.88 14.8L99.66 11.43L93.41 11.43L92.19 14.8L89.19 14.8ZM105.21 14.8L105.21 0.19L112.46 0.19C116.16 0.19 117.63 1.93 117.63 4.45C117.63 6.71 115.98 7.8 114.06 8.06L114.06 8.12C115.29 8.42 115.85 9.07 116.37 10.38C117.03 12.02 117.13 13.98 117.98 14.68L117.98 14.8L114.68 14.8C113.97 14.12 113.81 11.98 113.44 10.68C113.06 9.33 112.26 9.18 110.75 9.18L108.11 9.18L108.11 14.8L105.21 14.8ZM122.62 14.8L117.08 0.19L120.18 0.19C120.18 0.19 123.17 8.38 123.48 9.38C123.98 10.98 124.21 11.8 124.21 11.8L124.25 11.8C124.25 11.8 124.25 11.79 124.25 11.79C124.25 11.73 124.48 10.91 124.97 9.38C125.3 8.38 128.17 0.19 128.17 0.19L131.17 0.19L125.84 14.8L122.62 14.8ZM132.35 14.8L132.35 0.19L142.66 0.19L142.66 2.52L135.24 2.52L135.24 6L141.94 6L141.94 8.31L135.24 8.31L135.24 12.42L142.76 12.42L142.76 14.8L132.35 14.8ZM160.56 14.8L160.56 2.57L155.99 2.57L155.99 0.19L168 0.19L168 2.57L163.45 2.57L163.45 14.8L160.56 14.8ZM94.23 9.12L98.84 9.12L97.5 5.52C96.57 2.85 96.55 2.38 96.55 2.38L96.5 2.38C96.5 2.38 96.5 2.85 95.58 5.52L94.23 9.12ZM18.47 6.85L22.52 6.85C24.21 6.85 25 5.9 25 4.66C25 3.3 24.03 2.52 22.52 2.52L18.47 2.52L18.47 6.85ZM108.11 6.85L112.16 6.85C113.85 6.85 114.63 5.9 114.63 4.66C114.63 3.3 113.66 2.52 112.16 2.52L108.11 2.52L108.11 6.85ZM70.06 14.8L70.06 11.84L73.08 11.84L73.08 14.8L70.06 14.8Z" fill="#FBFBFB" fill-opacity="1.000000" fill-rule="evenodd"/>
</svg>
